<svg width="30" height="27" viewBox="0 0 30 27" fill="none" xmlns="http://www.w3.org/2000/svg">
<g filter="url(#filter0_d_218_240)">
<path d="M14.996 19C16.0985 19 17.1352 18.8674 18.106 18.6023C19.0768 18.3372 19.9709 17.9882 20.7884 17.5554C21.6059 17.1225 22.336 16.6437 22.9787 16.1188C23.6214 15.594 24.1687 15.0678 24.6205 14.5403C25.0722 14.0128 25.4151 13.5258 25.6491 13.0794C25.883 12.633 26 12.2719 26 11.9959C26 11.7254 25.883 11.367 25.6491 10.9206C25.4151 10.4742 25.0722 9.98725 24.6205 9.45971C24.1687 8.93217 23.6201 8.40734 22.9747 7.88522C22.3293 7.36309 21.5992 6.88425 20.7844 6.4487C19.9696 6.01314 19.0768 5.6628 18.106 5.39768C17.1352 5.13256 16.0985 5 14.996 5C13.9095 5 12.8836 5.13256 11.9182 5.39768C10.9528 5.6628 10.0627 6.01314 9.24789 6.4487C8.43308 6.88425 7.70163 7.36309 7.05354 7.88522C6.40545 8.40734 5.85417 8.93217 5.3997 9.45971C4.94524 9.98725 4.59834 10.4742 4.359 10.9206C4.11967 11.367 4 11.7254 4 11.9959C4 12.2719 4.11967 12.633 4.359 13.0794C4.59834 13.5258 4.94524 14.0128 5.3997 14.5403C5.85417 15.0678 6.40545 15.594 7.05354 16.1188C7.70163 16.6437 8.43308 17.1225 9.24789 17.5554C10.0627 17.9882 10.9528 18.3372 11.9182 18.6023C12.8836 18.8674 13.9095 19 14.996 19ZM15.004 16.3542C14.4017 16.3542 13.8369 16.2406 13.3099 16.0133C12.7828 15.7861 12.3203 15.4709 11.9223 15.0678C11.5243 14.6647 11.2123 14.2008 10.9864 13.6759C10.7605 13.1511 10.6476 12.5938 10.6476 12.0041C10.6422 11.3927 10.7525 10.8245 10.9784 10.2997C11.2043 9.77487 11.5162 9.31226 11.9142 8.91188C12.3122 8.51149 12.7761 8.20038 13.3058 7.97854C13.8356 7.75671 14.4017 7.64579 15.004 7.64579C15.6064 7.64579 16.1711 7.75671 16.6982 7.97854C17.2253 8.20038 17.6865 8.51149 18.0818 8.91188C18.4771 9.31226 18.789 9.77487 19.0176 10.2997C19.2462 10.8245 19.3605 11.3927 19.3605 12.0041C19.3605 12.5938 19.2462 13.1511 19.0176 13.6759C18.789 14.2008 18.4771 14.6647 18.0818 15.0678C17.6865 15.4709 17.2253 15.7861 16.6982 16.0133C16.1711 16.2406 15.6064 16.3542 15.004 16.3542H15.004ZM14.996 13.6678C15.4585 13.6678 15.8525 13.5042 16.1779 13.1768C16.5032 12.8495 16.6659 12.4585 16.6659 12.0041C16.6659 11.5496 16.5032 11.1573 16.1779 10.8272C15.8525 10.4972 15.4585 10.3322 14.996 10.3322C14.5388 10.3322 14.1475 10.4972 13.8221 10.8272C13.4968 11.1573 13.3341 11.5496 13.3341 12.0041C13.3341 12.4585 13.4968 12.8495 13.8221 13.1768C14.1475 13.5042 14.5388 13.6678 14.996 13.6678Z" fill="#AAB0B7"/>
</g>
<defs>
<filter id="filter0_d_218_240" x="-1" y="0" width="32" height="32" filterUnits="userSpaceOnUse" color-interpolation-filters="sRGB">
<feFlood flood-opacity="0" result="BackgroundImageFix"/>
<feColorMatrix in="SourceAlpha" type="matrix" values="0 0 0 0 0 0 0 0 0 0 0 0 0 0 0 0 0 0 127 0" result="hardAlpha"/>
<feOffset dy="4"/>
<feGaussianBlur stdDeviation="2"/>
<feComposite in2="hardAlpha" operator="out"/>
<feColorMatrix type="matrix" values="0 0 0 0 0 0 0 0 0 0 0 0 0 0 0 0 0 0 0.25 0"/>
<feBlend mode="normal" in2="BackgroundImageFix" result="effect1_dropShadow_218_240"/>
<feBlend mode="normal" in="SourceGraphic" in2="effect1_dropShadow_218_240" result="shape"/>
</filter>
</defs>
</svg>
